<?xml version="1.0" encoding="UTF-8"?>
<svg width="9px" height="9px" viewBox="0 0 9 9" version="1.1" xmlns="http://www.w3.org/2000/svg" xmlns:xlink="http://www.w3.org/1999/xlink">
    <!-- Generator: Sketch 55.1 (78136) - https://sketchapp.com -->
    <title>Next Copy</title>
    <desc>Created with Sketch.</desc>
    <g id="Page-1" stroke="none" stroke-width="1" fill="none" fill-rule="evenodd">
        <g id="Components" transform="translate(-104.000000, -249.000000)" fill="#A1A4B2">
            <path d="M104.91299,249.076611 C104.820149,249.026437 104.714599,249 104.607122,249 C104.271818,249 104,249.251872 104,249.562573 L104,252.366208 L104,254.6337 L104,257.437336 C104,257.536926 104.028531,257.634732 104.082678,257.72076 C104.251604,257.989149 104.623348,258.079828 104.91299,257.923297 L111,254.6337 L111,257.052632 C111,257.575849 111.447715,258 112,258 C112.552285,258 113,257.575849 113,257.052632 L113,249.947368 C113,249.424151 112.552285,249 112,249 C111.447715,249 111,249.424151 111,249.947368 L111,252.366208 L104.91299,249.076611 Z" id="Next-Copy"></path>
        </g>
    </g>
</svg>