<?xml version="1.0" encoding="UTF-8"?>
<svg width="9px" height="9px" viewBox="0 0 9 9" version="1.1" xmlns="http://www.w3.org/2000/svg" xmlns:xlink="http://www.w3.org/1999/xlink">
    <!-- Generator: Sketch 55.1 (78136) - https://sketchapp.com -->
    <title>Before</title>
    <desc>Created with Sketch.</desc>
    <g id="Page-1" stroke="none" stroke-width="1" fill="none" fill-rule="evenodd">
        <g id="Components" transform="translate(-13.000000, -249.000000)" fill="#A1A4B2">
            <path d="M13.9129901,249.076611 C13.8201494,249.026437 13.7145987,249 13.6071217,249 C13.2718176,249 13,249.251872 13,249.562573 L13,252.366208 L13,254.6337 L13,257.437336 C13,257.536926 13.0285309,257.634732 13.0826779,257.72076 C13.2516044,257.989149 13.6233478,258.079828 13.9129901,257.923297 L20,254.6337 L20,257.052632 C20,257.575849 20.4477153,258 21,258 C21.5522847,258 22,257.575849 22,257.052632 L22,249.947368 C22,249.424151 21.5522847,249 21,249 C20.4477153,249 20,249.424151 20,249.947368 L20,252.366208 L13.9129901,249.076611 Z" id="Before" transform="translate(17.500000, 253.500000) scale(-1, 1) translate(-17.500000, -253.500000) "></path>
        </g>
    </g>
</svg>