<?xml version="1.0" encoding="UTF-8"?>
<svg width="14px" height="13px" viewBox="0 0 14 13" version="1.1" xmlns="http://www.w3.org/2000/svg" xmlns:xlink="http://www.w3.org/1999/xlink">
    <!-- Generator: Sketch 55.1 (78136) - https://sketchapp.com -->
    <title>Repeat Copy</title>
    <desc>Created with Sketch.</desc>
    <g id="Page-1" stroke="none" stroke-width="1" fill="none" fill-rule="evenodd">
        <g id="Components" transform="translate(-35.000000, -248.000000)" fill="#A1A4B2" fill-rule="nonzero">
            <path d="M38.36,257.954143 L42.4678553,257.954143 C45.9484442,257.954143 47.5066667,256.556982 47.5066667,253.633333 L49,253.633333 C49,257.626319 46.7012372,259.687476 42.4678553,259.687476 L38.36,259.687476 L38.36,261 L35,258.833333 L38.36,256.666667 L38.36,257.954143 Z M45.64,251.045857 L41.5321447,251.045857 C38.0515558,251.045857 36.4933333,252.443018 36.4933333,255.366667 L35,255.366667 C35,251.373681 37.2987628,249.312524 41.5321447,249.312524 L45.64,249.312524 L45.64,248 L49,250.166667 L45.64,252.333333 L45.64,251.045857 Z" id="Repeat-Copy"></path>
        </g>
    </g>
</svg>