<?xml version="1.0" encoding="UTF-8"?>
<svg width="13px" height="13px" viewBox="0 0 13 13" version="1.1" xmlns="http://www.w3.org/2000/svg" xmlns:xlink="http://www.w3.org/1999/xlink">
    <!-- Generator: Sketch 55.1 (78136) - https://sketchapp.com -->
    <title>Queue</title>
    <desc>Created with Sketch.</desc>
    <g id="Page-1" stroke="none" stroke-width="1" fill="none" fill-rule="evenodd">
        <g id="Components" transform="translate(-804.000000, -250.000000)" fill="#A1A4B2">
            <path d="M810.403586,252.665421 L815.922745,252.665421 C816.311497,252.665421 816.626644,252.980567 816.626644,253.36932 C816.626644,253.758073 816.311497,254.073219 815.922745,254.073219 L809.711501,254.073219 L810.431173,253.653489 C810.515034,253.604579 810.584811,253.534801 810.633721,253.45094 C810.790261,253.182536 810.699577,252.838051 810.431173,252.681511 L810.403586,252.665421 Z M805.36426,261.816108 C805.36426,261.427355 805.679406,261.112209 806.068159,261.112209 L815.922745,261.112209 C816.311497,261.112209 816.626644,261.427355 816.626644,261.816108 C816.626644,262.204861 816.311497,262.520007 815.922745,262.520007 L806.068159,262.520007 C805.679406,262.520007 805.36426,262.204861 805.36426,261.816108 Z M805.36426,257.592714 C805.36426,257.203961 805.679406,256.888815 806.068159,256.888815 L815.922745,256.888815 C816.311497,256.888815 816.626644,257.203961 816.626644,257.592714 C816.626644,257.981467 816.311497,258.296613 815.922745,258.296613 L806.068159,258.296613 C805.679406,258.296613 805.36426,257.981467 805.36426,257.592714 Z M809.347559,253.509581 L804.595497,256.2811 C804.406578,256.391282 804.164109,256.327453 804.053927,256.138534 C804.018609,256.077979 804,256.009134 804,255.939032 L804,250.395994 C804,250.177293 804.177293,250 804.395994,250 C804.466096,250 804.534941,250.018609 804.595497,250.053927 L809.347559,252.825445 C809.536477,252.935628 809.600306,253.178097 809.490124,253.367016 C809.455698,253.426042 809.406585,253.475156 809.347559,253.509581 Z" id="Queue"></path>
        </g>
    </g>
</svg>