<?xml version="1.0" encoding="UTF-8"?>
<svg width="32px" height="32px" viewBox="0 0 32 32" version="1.1" xmlns="http://www.w3.org/2000/svg" xmlns:xlink="http://www.w3.org/1999/xlink">
    <!-- Generator: Sketch 55.1 (78136) - https://sketchapp.com -->
    <title>pause</title>
    <desc>Created with Sketch.</desc>
    <g id="Page-1" stroke="none" stroke-width="1" fill="none" fill-rule="evenodd">
        <g id="Components" transform="translate(-182.000000, -240.000000)">
            <g id="pause" transform="translate(183.000000, 241.000000)">
                <circle id="Oval-3" stroke="#FFFFFF" opacity="0.3" cx="14.7624365" cy="14.7624365" r="14.7624365"></circle>
                <path d="M12.5471942,9.54762116 C13.230501,9.54762116 13.7844306,10.0340279 13.7844306,10.634041 L13.7844306,18.890832 C13.7844306,19.4908451 13.230501,19.9772519 12.5471942,19.9772519 C11.8638874,19.9772519 11.3099578,19.4908451 11.3099578,18.890832 L11.3099578,10.634041 C11.3099578,10.0340279 11.8638874,9.54762116 12.5471942,9.54762116 Z M16.9776788,9.54762116 C17.6609856,9.54762116 18.2149152,10.0340279 18.2149152,10.634041 L18.2149152,18.890832 C18.2149152,19.4908451 17.6609856,19.9772519 16.9776788,19.9772519 C16.294372,19.9772519 15.7404424,19.4908451 15.7404424,18.890832 L15.7404424,10.634041 C15.7404424,10.0340279 16.294372,9.54762116 16.9776788,9.54762116 Z" id="Pause" fill="#A1A4B2"></path>
            </g>
        </g>
    </g>
</svg>