<?xml version="1.0" encoding="UTF-8"?>
<svg width="16px" height="12px" viewBox="0 0 16 12" version="1.1" xmlns="http://www.w3.org/2000/svg" xmlns:xlink="http://www.w3.org/1999/xlink">
    <!-- Generator: Sketch 55.1 (78136) - https://sketchapp.com -->
    <title>Shuffle</title>
    <desc>Created with Sketch.</desc>
    <g id="Page-1" stroke="none" stroke-width="1" fill="none" fill-rule="evenodd">
        <g id="Components" transform="translate(-61.000000, -247.000000)" fill="#A1A4B2" fill-rule="nonzero">
            <g id="Shuffle" transform="translate(61.000000, 247.000000)">
                <path d="M12.3017633,1.82644373 L12.3017633,0.563854179 L15.8545044,2.6681701 L12.3017633,4.77248602 L12.3017633,3.50989647 L11.633012,3.50989647 C9.63887884,3.50989647 8.01037912,4.5589101 6.69122932,6.71594986 C5.34237308,9.04871735 3.39466762,10.2437074 0.932991531,10.2437074 L0.222443298,10.2437074 L0.222443298,8.56025468 L0.932991531,8.56025468 C2.9296573,8.56025468 4.43716677,7.6353413 5.52964218,5.74638595 C7.11917096,3.14673395 9.16880327,1.82644373 11.633012,1.82644373 L12.3017633,1.82644373 Z M12.3017633,8.56025468 L12.3017633,7.29766513 L15.8545044,9.40198105 L12.3017633,11.506297 L12.3017633,10.2437074 L11.633012,10.2437074 C9.67548561,10.2437074 7.97957557,9.410545 6.56810422,7.76473725 C6.60968434,7.69674381 6.6507268,7.62772295 6.69122932,7.55767622 C6.93980023,7.15121947 7.19935519,6.78410526 7.47027077,6.45593876 C8.6370867,7.86933072 10.0146387,8.56025468 11.633012,8.56025468 L12.3017633,8.56025468 L12.3017633,8.56025468 Z M5.95041087,4.26166249 C5.80676333,4.4664937 5.66649741,4.68083477 5.52964218,4.90465958 C5.38279729,5.15856319 5.22845383,5.39504912 5.0664318,5.61421239 C4.02306576,4.20287643 2.66127581,3.50989647 0.932991531,3.50989647 L0.222443298,3.50989647 L0.222443298,1.82644373 L0.932991531,1.82644373 C2.97544239,1.82644373 4.66407542,2.64907595 5.95041087,4.26166249 L5.95041087,4.26166249 Z" id="Shuffle-Copy"></path>
            </g>
        </g>
    </g>
</svg>