<?xml version="1.0" encoding="UTF-8"?>
<svg width="9px" height="9px" viewBox="0 0 9 9" version="1.1" xmlns="http://www.w3.org/2000/svg" xmlns:xlink="http://www.w3.org/1999/xlink">
    <!-- Generator: Sketch 55.1 (78136) - https://sketchapp.com -->
    <title>Group 6</title>
    <desc>Created with Sketch.</desc>
    <g id="Page-1" stroke="none" stroke-width="1" fill="none" fill-rule="evenodd">
        <g id="Components" transform="translate(-104.000000, -249.000000)">
            <g id="Group-6" transform="translate(100.000000, 245.000000)">
                <rect id="Rectangle-Copy-4" x="0" y="0" width="16" height="16"></rect>
                <path d="M4.91299012,4.07661126 C4.82014937,4.02643742 4.71459867,4 4.60712168,4 C4.27181764,4 4,4.25187241 4,4.56257277 L4,7.36620849 L4,9.63369988 L4,12.4373356 C4,12.5369262 4.02853094,12.6347319 4.08267794,12.7207603 C4.25160441,12.9891494 4.62334784,13.0798282 4.91299012,12.9232971 L11,9.63369988 L11,12.0526316 C11,12.5758487 11.4477153,13 12,13 C12.5522847,13 13,12.5758487 13,12.0526316 L13,4.94736842 C13,4.42415129 12.5522847,4 12,4 C11.4477153,4 11,4.42415129 11,4.94736842 L11,7.36620849 L4.91299012,4.07661126 Z" id="Next-Copy" fill="#A1A4B2"></path>
            </g>
        </g>
    </g>
</svg>