<?xml version="1.0" encoding="UTF-8"?>
<svg width="14px" height="13px" viewBox="0 0 14 13" version="1.1" xmlns="http://www.w3.org/2000/svg" xmlns:xlink="http://www.w3.org/1999/xlink">
    <!-- Generator: Sketch 55.1 (78136) - https://sketchapp.com -->
    <title>Group 3</title>
    <desc>Created with Sketch.</desc>
    <g id="Page-1" stroke="none" stroke-width="1" fill="none" fill-rule="evenodd">
        <g id="Components" transform="translate(-35.000000, -248.000000)">
            <g id="Group-3" transform="translate(34.000000, 246.000000)">
                <rect id="Rectangle-Copy-2" x="0" y="0" width="16" height="16"></rect>
                <path d="M4.36,11.9541426 L8.46785533,11.9541426 C11.9484442,11.9541426 13.5066667,10.556982 13.5066667,7.63333333 L15,7.63333333 C15,11.6263192 12.7012372,13.6874759 8.46785533,13.6874759 L4.36,13.6874759 L4.36,15 L1,12.8333333 L4.36,10.6666667 L4.36,11.9541426 Z M11.64,5.04585742 L7.53214467,5.04585742 C4.05155584,5.04585742 2.49333333,6.44301799 2.49333333,9.36666667 L1,9.36666667 C1,5.37368079 3.29876283,3.31252408 7.53214467,3.31252408 L11.64,3.31252408 L11.64,2 L15,4.16666667 L11.64,6.33333333 L11.64,5.04585742 Z" id="Repeat-Copy" fill="#A1A4B2" fill-rule="nonzero"></path>
            </g>
        </g>
    </g>
</svg>