<?xml version="1.0" encoding="UTF-8"?>
<svg width="13px" height="13px" viewBox="0 0 13 13" version="1.1" xmlns="http://www.w3.org/2000/svg" xmlns:xlink="http://www.w3.org/1999/xlink">
    <!-- Generator: Sketch 55.1 (78136) - https://sketchapp.com -->
    <title>Group 2</title>
    <desc>Created with Sketch.</desc>
    <g id="Page-1" stroke="none" stroke-width="1" fill="none" fill-rule="evenodd">
        <g id="Components" transform="translate(-806.000000, -288.000000)">
            <g id="Group-2" transform="translate(804.000000, 286.000000)">
                <rect id="Rectangle-Copy-4" x="0" y="0" width="16" height="16"></rect>
                <path d="M8.40358568,4.66542107 L13.9227445,4.66542107 C14.3114972,4.66542107 14.6266435,4.98056738 14.6266435,5.36932007 C14.6266435,5.75807275 14.3114972,6.07321907 13.9227445,6.07321907 L7.71150094,6.07321907 L8.43117275,5.65348884 C8.51503363,5.60457912 8.58481141,5.53480134 8.63372113,5.45094046 C8.79026115,5.18253606 8.69957715,4.83805054 8.43117275,4.68151052 L8.40358568,4.66542107 Z M3.36425956,13.816108 C3.36425956,13.4273554 3.67940588,13.112209 4.06815856,13.112209 L13.9227445,13.112209 C14.3114972,13.112209 14.6266435,13.4273554 14.6266435,13.816108 C14.6266435,14.2048607 14.3114972,14.520007 13.9227445,14.520007 L4.06815856,14.520007 C3.67940588,14.520007 3.36425956,14.2048607 3.36425956,13.816108 Z M3.36425956,9.59271406 C3.36425956,9.20396138 3.67940588,8.88881506 4.06815856,8.88881506 L13.9227445,8.88881506 C14.3114972,8.88881506 14.6266435,9.20396138 14.6266435,9.59271406 C14.6266435,9.98146674 14.3114972,10.2966131 13.9227445,10.2966131 L4.06815856,10.2966131 C3.67940588,10.2966131 3.36425956,9.98146674 3.36425956,9.59271406 Z M7.34755854,5.50958107 L2.59549674,8.2810999 C2.4065779,8.391282 2.16410869,8.32745325 2.05392659,8.13853441 C2.01860927,8.07797914 2,8.00913382 2,7.93903208 L2,2.39599441 C2,2.17729274 2.17729274,2 2.39599441,2 C2.46609615,2 2.53494147,2.01860927 2.59549674,2.05392659 L7.34755854,4.82544543 C7.53647738,4.93562752 7.60030613,5.17809674 7.49012403,5.36701558 C7.45569849,5.42604181 7.40658478,5.47515552 7.34755854,5.50958107 Z" id="Queue-Copy" fill="#A1A4B2"></path>
            </g>
        </g>
    </g>
</svg>