<?xml version="1.0" encoding="UTF-8"?>
<svg width="14px" height="11px" viewBox="0 0 14 11" version="1.1" xmlns="http://www.w3.org/2000/svg" xmlns:xlink="http://www.w3.org/1999/xlink">
    <!-- Generator: Sketch 55.1 (78136) - https://sketchapp.com -->
    <title>Group Copy</title>
    <desc>Created with Sketch.</desc>
    <g id="Page-1" stroke="none" stroke-width="1" fill="none" fill-rule="evenodd">
        <g id="Components" transform="translate(-625.000000, -296.000000)">
            <g id="Group-Copy" transform="translate(624.000000, 293.000000)">
                <rect id="Rectangle-Copy-6" x="0" y="0" width="16" height="16"></rect>
                <path d="M1,6.35721036 L3.73128978,6.35721036 L7.37300949,3.62592057 L7.37300949,12.7302198 L3.73128978,9.99893007 L1,9.99893007 L1,6.35721036 Z M14.6564489,8.17807021 C14.6561984,10.1236097 13.8775853,11.988183 12.4941778,13.3561404 L11.5837479,12.3888086 C12.6903889,11.2682892 13.3047442,9.75287934 13.290804,8.17807021 C13.3047442,6.60326108 12.6903889,5.08785127 11.5837479,3.9673318 L12.4941778,3 C13.8775853,4.36795743 14.6561984,6.23253075 14.6564489,8.17807021 L14.6564489,8.17807021 Z M11.4699565,8.17807021 C11.4726112,9.2656643 11.0427193,10.3096874 10.2750049,11.0800656 L9.30767309,10.1127338 C9.81948271,9.59914835 10.1060773,8.90313294 10.1042993,8.17807021 C10.1060773,7.45300749 9.81948271,6.75699208 9.30767309,6.24340662 L10.2750049,5.27607482 C11.0427193,6.04645301 11.4726112,7.09047612 11.4699565,8.17807021 L11.4699565,8.17807021 Z" id="Shape" fill="#D99197" fill-rule="nonzero"></path>
            </g>
        </g>
    </g>
</svg>