<?xml version="1.0" encoding="UTF-8"?>
<svg width="14px" height="11px" viewBox="0 0 14 11" version="1.1" xmlns="http://www.w3.org/2000/svg" xmlns:xlink="http://www.w3.org/1999/xlink">
    <!-- Generator: Sketch 55.1 (78136) - https://sketchapp.com -->
    <title>Shape</title>
    <desc>Created with Sketch.</desc>
    <g id="Page-1" stroke="none" stroke-width="1" fill="none" fill-rule="evenodd">
        <g id="Components" transform="translate(-619.000000, -295.000000)" fill="#A1A4B2" fill-rule="nonzero">
            <path d="M619,298.35721 L621.73129,298.35721 L625.373009,295.625921 L625.373009,304.73022 L621.73129,301.99893 L619,301.99893 L619,298.35721 Z M632.656449,300.17807 C632.656198,302.12361 631.877585,303.988183 630.494178,305.35614 L629.583748,304.388809 C630.690389,303.268289 631.304744,301.752879 631.290804,300.17807 C631.304744,298.603261 630.690389,297.087851 629.583748,295.967332 L630.494178,295 C631.877585,296.367957 632.656198,298.232531 632.656449,300.17807 L632.656449,300.17807 Z M629.469956,300.17807 C629.472611,301.265664 629.042719,302.309687 628.275005,303.080066 L627.307673,302.112734 C627.819483,301.599148 628.106077,300.903133 628.104299,300.17807 C628.106077,299.453007 627.819483,298.756992 627.307673,298.243407 L628.275005,297.276075 C629.042719,298.046453 629.472611,299.090476 629.469956,300.17807 L629.469956,300.17807 Z" id="Shape"></path>
        </g>
    </g>
</svg>